<?xml version="1.0" encoding="utf-8"?>
<!-- Generator: Adobe Illustrator 23.0.2, SVG Export Plug-In . SVG Version: 6.00 Build 0)  -->
<svg version="1.1" id="Layer_1" xmlns="http://www.w3.org/2000/svg" xmlns:xlink="http://www.w3.org/1999/xlink" x="0px" y="0px"
	 viewBox="0 0 486.2 168.8" style="enable-background:new 0 0 486.2 168.8;" xml:space="preserve">
<style type="text/css">
	.st0{fill:#2B7439;}
	.st1{fill:#0E0E0E;}
	.st2{fill:#51B848;}
	.st3{fill:#D92D2B;}
</style>
<g>
	<g>
		<g>
			<path class="st0" d="M61.9,76.6c0,2.3-1.9,3.3-5.6,3c0.4,3.7-0.9,5.5-3.9,5.5V40.5c0-2.4,2.3-2.9,6.9-1.7
				c-1.2-4.6-0.3-6.8,2.6-6.8V76.6z"/>
			<path class="st0" d="M81.8,72.1c0,1,0.3,1.8,1,2.5c0.7,0.7,1.5,1,2.5,1h1.8v9.5h-1.8c-2.2,0-3.8-0.3-4.9-0.9
				c-0.8,2.5-2.5,5-5,7.5C71.1,96,65.5,98,58.6,98l6.3-2.5c-4.2-3.2-4.2-5.8,0-7.9c4.9-2.4,7.3-6,7.3-11V60.8c0-2.3,2-3.1,6-2.1
				c-0.7-4.3,0.5-6.5,3.5-6.5V72.1z"/>
			<path class="st0" d="M84.4,85.2v-9.5h5c-0.3-0.6-0.4-1.8-0.4-3.4c0-3.5,1.2-6.5,3.6-8.9c2.4-2.4,5.4-3.8,8.9-4l1.6,0.1
				c3.7,0.2,7,1.8,10,4.6c3,2.8,5,6.7,6,11.7h4.3c-1.9-11.1-7.4-17.2-16.4-18.1l-0.1,0c-0.2,0-0.5,0-0.9,0h-0.4
				c-1.5,0.1-2.8,0.4-3.9,0.9c-2.6,1-3.8-0.3-3.5-3.9l-7.3,0.3c4.1-4.2,9-6.5,14.6-6.8h0.6c0.4,0,1,0,1.8,0.1
				c4.6,0.3,8.8,1.8,12.7,4.5c3.9,2.7,7.1,6.7,9.5,12c2.4,5.2,3.6,12.1,3.6,20.7H84.4z M109.4,75.7c-1.1-4.1-3.4-6.4-6.9-6.8l-0.6,0
				c-1,0.1-1.8,0.4-2.4,1.1c-0.6,0.6-1,1.4-1,2.3c0,0.9,0.3,1.7,1,2.3c0.6,0.6,1.4,1,2.4,1.1H109.4z"/>
			<path class="st0" d="M153.6,72.1c0,1,0.3,1.8,1,2.5c0.7,0.7,1.5,1,2.5,1h1.8v9.5h-1.8c-2.2,0-3.8-0.3-4.9-0.9
				c-0.8,2.5-2.5,5-5,7.5c-4.3,4.1-9.9,6.2-16.7,6.1l4.2-3.1c-2.8-2.8-2.1-5.2,2.1-7.3c4.9-2.4,7.3-6,7.3-11V60.8
				c0-2.3,1.9-2.8,5.6-1.4c-0.4-4.8,0.9-7.2,3.9-7.2V72.1z M151.5,48.4c-1.1,1.1-2.3,1.6-3.8,1.6c-1.5,0-2.7-0.5-3.8-1.6
				c-1.1-1.1-1.6-2.3-1.6-3.8c0-1.5,0.5-2.7,1.6-3.8c1.1-1.1,2.3-1.6,3.8-1.6c1.5,0,2.7,0.5,3.8,1.6c1.1,1.1,1.6,2.3,1.6,3.8
				C153.1,46.1,152.5,47.3,151.5,48.4z"/>
			<path class="st0" d="M174.7,72.2c0,3.6-1.3,6.6-3.8,9.2c-2.6,2.5-5.7,3.8-9.2,3.8h-5.4v-9.5h5.4c1,0,1.8-0.3,2.5-1
				c0.7-0.7,1-1.5,1-2.5V40.4c0-2.4,1.8-2.9,5.5-1.6c-0.3-4.7,1-7,4-7V72.2z"/>
			<path class="st0" d="M192.2,76.6c0,2.3-1.9,3.3-5.6,3c0.4,3.7-0.9,5.5-3.9,5.5V40.5c0-2.4,2.3-2.9,6.9-1.7
				c-1.2-4.6-0.3-6.8,2.6-6.8V76.6z"/>
			<path class="st0" d="M212.1,75.7c1.7,0,3.3,0.9,5,2.5c1.7,1.7,2.5,4,2.5,7H211c-3.2,0-6.2-1.4-8.9-4.1c-2.7-2.8-4.1-6.1-4.1-9.9
				c0-3.8,1-7.4,3.1-10.7c2-3.3,5.1-6,9.2-8c4.1-2,9.4-3,15.9-3v22.8c0,1,0.3,1.8,1,2.5c0.7,0.7,1.5,1,2.5,1h3.8v9.5h-3.8
				c-3.6,0-6.6-1.3-9.2-3.8c-2.6-2.6-3.8-5.6-3.8-9.2V60.1c-6.1,1.8-9.2,5.5-9.2,11c0,1.3,0.5,2.3,1.3,3.2c0.9,0.9,1.6,1.3,2.2,1.3
				H212.1z M211.1,44.9c-1.1,1.1-2.3,1.6-3.8,1.6c-1.5,0-2.7-0.5-3.8-1.6c-1.1-1.1-1.6-2.3-1.6-3.8c0-1.5,0.5-2.7,1.6-3.8
				c1.1-1.1,2.3-1.6,3.8-1.6c1.5,0,2.7,0.5,3.8,1.6c1.1,1.1,1.6,2.3,1.6,3.8C212.6,42.6,212.1,43.9,211.1,44.9z M222.5,44.9
				c-1.1,1.1-2.3,1.6-3.8,1.6c-1.5,0-2.7-0.5-3.8-1.6c-1.1-1.1-1.6-2.3-1.6-3.8c0-1.5,0.5-2.7,1.6-3.8c1.1-1.1,2.3-1.6,3.8-1.6
				c1.5,0,2.8,0.5,3.8,1.6c1,1.1,1.6,2.3,1.6,3.8C224,42.6,223.5,43.8,222.5,44.9z"/>
			<path class="st0" d="M243.7,82.3c-2.1,1.9-4.8,2.9-8.3,2.9h-5.3v-9.5h5.3c1,0,1.8-0.3,2.5-1c0.7-0.7,1-1.5,1-2.5V52.2
				c6.1,0,11,0.9,14.7,2.8c3.7,1.8,6.5,4.3,8.4,7.3c1.9,3,2.8,6.3,2.8,9.8c0,1,0.4,1.8,1.1,2.5c0.7,0.7,1.5,1,2.5,1h1.7v9.5h-1.7
				c-3.5,0-6.2-1-8.3-2.9c-2.1,2-4.8,2.9-8.2,2.9S245.8,84.2,243.7,82.3z M248.5,72.2c0,1,0.3,1.8,1,2.5c0.7,0.7,1.5,1,2.5,1
				s1.8-0.3,2.4-1c0.7-0.7,1-1.5,1-2.5c0-1.9-0.7-3.8-2.1-5.7c-1.4-1.9-3-3.1-4.8-3.5V72.2z"/>
			<path class="st0" d="M267.5,75.7h5.8V40.5c0-2.4,1.9-2.9,5.8-1.5c-0.5-4.8,0.7-7.2,3.7-7.2v25.5c0,0.1,0.1,0,0.3-0.2
				c0.2-0.1,0.6-0.4,1.2-0.9c3.3-2.4,6.9-3.7,10.7-4l1.7-0.1l0.3,0c4.5,0.3,8.3,1.9,11.4,5c3.1,3.1,4.6,6.9,4.6,11.4
				c0,4.5-1.5,8.3-4.6,11.4c-3,3.1-6.8,4.8-11.4,5.1h-29.5V75.7z M296.7,75.7c2-0.1,3.6-0.9,4.8-2.2c1.3-1.3,1.9-2.9,1.9-4.8
				c0-1.9-0.6-3.5-1.9-4.8c-1.3-1.3-2.9-2-4.8-2.1l-1,0c-6.5,0.8-10.5,5.4-12.1,13.9H296.7z"/>
			<path class="st0" d="M333.6,85.2c-3.5,0-6.6-1.3-9-3.8c-2.6-2.5-3.8-5.6-3.8-9.2V40.4c0-2.4,2.3-2.9,6.8-1.6
				c-1.2-4.7-0.3-7,2.7-7v40.3c0,1,0.3,1.8,1,2.5c0.7,0.7,1.5,1,2.5,1h2.1v9.5H333.6z"/>
			<path class="st0" d="M351.9,75.6h-2.3c-3.6,0-6.7-1.3-9.2-3.8c-2.5-2.6-3.8-5.6-3.8-9.2c0-3.5,1-6.8,2.9-9.8
				c1.9-3,4.7-5.5,8.4-7.3c3.8-1.8,8.6-2.8,14.7-2.8v29.5c0,3.6-1.3,6.6-3.8,9.2c-2.6,2.5-5.7,3.8-9.2,3.8h-16.3v-9.5h16.3
				c1,0,1.8-0.3,2.5-1C352.3,74.4,352.3,74.7,351.9,75.6z M354.5,40.1c-1.1,1.1-2.3,1.6-3.8,1.6c-1.5,0-2.7-0.5-3.8-1.6
				s-1.6-2.3-1.6-3.8s0.5-2.7,1.6-3.8c1.1-1.1,2.3-1.6,3.8-1.6c1.5,0,2.8,0.5,3.8,1.6c1,1.1,1.6,2.3,1.6,3.8
				C356,37.7,355.5,39,354.5,40.1z M353,53.5c-1.8,0.4-3.4,1.6-4.8,3.5c-1.4,1.9-2.1,3.8-2.1,5.7c0,0.9,0.3,1.8,1,2.5
				c0.7,0.7,1.5,1,2.5,1c1,0,1.8-0.3,2.4-1c0.7-0.7,1-1.5,1-2.5V53.5z"/>
			<path class="st0" d="M399.9,75.7v9.5H397c-2.1,0-3.7-0.3-4.9-0.9c-1.3,3.8-3.9,7.1-7.6,9.8c-3.8,2.7-8.5,4-14.1,3.9l4.4-2.2
				c-2.9-3.3-2.2-6,2-8.1c2.1-0.9,3.3-1.7,3.7-2.2l0.1-0.1c0,0,0-0.1,0,0c-3.6,0-6.7-1.3-9.2-3.8c-2.5-2.6-3.8-5.6-3.8-9.2
				c0-3.5,1-6.8,2.9-9.8c1.9-3,4.7-5.5,8.4-7.4c3.8-1.8,8.6-2.8,14.7-2.8v19.9c0,1,0.3,1.8,1,2.5c0.7,0.7,1.5,1,2.5,1H399.9z
				 M373,49.7c0-1,0.3-1.8,1-2.5c0.2-0.2,0.5-0.4,0.9-0.6c-0.3-0.7-0.5-1.5-0.6-2.2c0-1.6,0.5-3,1.6-4c1.1-1.1,2.4-1.6,3.9-1.6
				c1.4,0,2.7,0.3,3.9,1c1.2,0.7,2.2,1.7,3,3l-1.1,0.6c-1.2,0.5-2.2,0.4-3.2-0.2c-0.9-0.6-1.7-0.9-2.6-0.9c-0.7,0-1.2,0.3-1.6,0.8
				c-0.4,0.5-0.6,1.1-0.4,1.8c0.1,0.5,0.4,0.8,0.8,1c0.4,0.3,0.8,0.4,1.2,0.4h4.5c0.9,0,1.8,0.3,2.5,1c0.7,0.7,1,1.5,1,2.5H373z
				 M378,74.6c0.7,0.7,1.5,1,2.5,1h3.9c-0.3-0.6-0.4-1.8-0.4-3.5V63c-1.8,0.4-3.4,1.6-4.8,3.5c-1.4,1.9-2.1,3.8-2.1,5.7
				C376.9,73.2,377.3,74,378,74.6z"/>
			<path class="st0" d="M407.1,60.9c0-2.4,2.1-3.2,6.3-2.4c-0.9-4.1,0.2-6.2,3.2-6.2v19.9c0,3.6-1.3,6.6-3.8,9.2
				c-2.6,2.5-5.7,3.8-9.2,3.8h-6.3v-9.5h6.3c1,0,1.8-0.3,2.5-1c0.7-0.7,1-1.5,1-2.5V60.9z M408.2,98.1c-1.1,1.1-2.3,1.6-3.8,1.6
				c-1.5,0-2.7-0.5-3.8-1.6c-1.1-1.1-1.6-2.3-1.6-3.8c0-1.5,0.5-2.7,1.6-3.8c1.1-1.1,2.3-1.6,3.8-1.6c1.5,0,2.7,0.5,3.8,1.6
				c1.1,1.1,1.6,2.3,1.6,3.8C409.8,95.8,409.2,97.1,408.2,98.1z"/>
			<path class="st0" d="M433.8,76.6c0,2.3-1.9,3.3-5.6,3c0.4,3.7-0.9,5.5-3.9,5.5V40.5c0-2.4,2.3-2.9,6.9-1.7
				c-1.2-4.6-0.3-6.8,2.6-6.8V76.6z"/>
		</g>
	</g>
	<g>
		<g>
			<path class="st1" d="M69.3,119.9h3.3v17.8h-3.3v-7.3H57.7v7.3h-3.3v-17.8h3.3v7.3h11.7V119.9z"/>
			<path class="st1" d="M78.9,119.9h10.9c1,0,1.8,0.3,2.4,1c0.7,0.7,1,1.5,1,2.4v14.4H90v-6H78.7v6h-3.3v-14.4c0-1,0.3-1.8,1-2.4
				S77.9,119.9,78.9,119.9z M78.7,128.4H90v-5.1c0-0.1-0.1-0.2-0.2-0.2H78.9c-0.1,0-0.2,0.1-0.2,0.2V128.4z"/>
			<path class="st1" d="M109.3,134.3v-14.4h3.3v14.4c0,1-0.3,1.8-1,2.4c-0.7,0.7-1.5,1-2.4,1H98.3c-1,0-1.8-0.3-2.4-1s-1-1.5-1-2.4
				v-2h3.3v2c0,0.1,0.1,0.2,0.2,0.2h10.9C109.3,134.4,109.3,134.4,109.3,134.3z"/>
			<path class="st1" d="M128.6,134.3v-14.4h3.3v14.4c0,1-0.3,1.8-1,2.4c-0.7,0.7-1.5,1-2.4,1h-10.9c-1,0-1.8-0.3-2.4-1s-1-1.5-1-2.4
				v-2h3.3v2c0,0.1,0.1,0.2,0.2,0.2h10.9C128.6,134.4,128.6,134.4,128.6,134.3z"/>
			<path class="st1" d="M159.9,132.9l3,1.8v3.3l-3.4-1.9c-0.3,0.5-0.7,0.9-1.2,1.3c-0.5,0.3-1.1,0.5-1.8,0.5h-10.8
				c-0.9,0-1.7-0.3-2.4-1s-1-1.5-1-2.4v-4.8c0-0.4,0.1-0.8,0.3-1.2c0.2-0.4,0.5-0.7,0.9-0.9c-0.2-0.3-0.3-0.9-0.3-1.5v-2.6
				c0-0.9,0.3-1.7,1-2.4s1.5-1,2.4-1h9.2c0.8,0,1.6,0.3,2.2,0.8c0.7,0.5,1,1.2,1.2,2v2.1h-3.2v-1.5c0-0.1,0-0.2-0.1-0.2h-9.2
				c-0.1,0-0.2,0.1-0.2,0.2v3.1l10.2,5.1v-2.7h3.2V132.9z M145.7,134.5H156l-10.1-5.1h-0.2c-0.1,0-0.2,0-0.2,0.1v4.8
				C145.5,134.4,145.5,134.5,145.7,134.5z"/>
			<path class="st1" d="M187.6,134.3v-14.4h3.3v14.4c0,1-0.3,1.8-1,2.4c-0.7,0.7-1.5,1-2.4,1h-10.9c-1,0-1.8-0.3-2.4-1s-1-1.5-1-2.4
				v-14.4h3.3v14.4c0,0.1,0.1,0.2,0.2,0.2h10.9C187.6,134.4,187.6,134.4,187.6,134.3z"/>
			<path class="st1" d="M203.7,127.6l6.5-7.7h3.6v17.8h-3.3v-13.1l-6.8,8l-6.8-8v13.1h-3.3v-17.8h3.6L203.7,127.6z"/>
			<path class="st1" d="M234.4,123.3v4.8c0,0.9-0.3,1.7-1,2.4c-0.7,0.7-1.5,1-2.4,1h-1l4.4,5.3v0.8h-3.6l-5.1-6.1h-5.8h-0.1v6.1
				h-3.3v-17.8h14.3c1,0,1.8,0.3,2.4,1C234,121.6,234.4,122.4,234.4,123.3z M220,128.3h10.9c0.1,0,0.2-0.1,0.2-0.2v-4.8
				c0-0.1-0.1-0.2-0.2-0.2H220c-0.1,0-0.2,0.1-0.2,0.2v4.8C219.8,128.3,219.9,128.3,220,128.3z"/>
			<path class="st1" d="M240.5,119.9h10.9c1,0,1.8,0.3,2.4,1c0.7,0.7,1,1.5,1,2.4v14.4h-3.3v-6h-11.3v6H237v-14.4c0-1,0.3-1.8,1-2.4
				S239.5,119.9,240.5,119.9z M240.3,128.4h11.3v-5.1c0-0.1-0.1-0.2-0.2-0.2h-10.9c-0.1,0-0.2,0.1-0.2,0.2V128.4z"/>
			<path class="st1" d="M272.6,119.9h3.3v17.8h-3.3v-7.3H261v7.3h-3.3v-17.8h3.3v7.3h11.7V119.9z"/>
			<path class="st1" d="M304,123.3v1.4h-3.3v-1.4c0-0.1,0-0.2-0.1-0.2h-10.9c-0.1,0-0.2,0.1-0.2,0.2v3.7c0,0.1,0.1,0.2,0.2,0.2h10.9
				c0.9,0,1.7,0.3,2.4,1c0.7,0.7,1,1.5,1,2.4v3.7c0,1-0.3,1.8-1,2.4c-0.7,0.7-1.5,1-2.4,1h-10.9c-1,0-1.8-0.3-2.4-1s-1-1.5-1-2.4
				v-1.4h3.3v1.4c0,0.1,0.1,0.2,0.2,0.2h10.9c0.1,0,0.1-0.1,0.1-0.2v-3.7c0-0.1,0-0.2-0.1-0.2h-10.9c-1,0-1.8-0.3-2.4-1
				s-1-1.5-1-2.4v-3.7c0-1,0.3-1.8,1-2.4s1.5-1,2.4-1h10.9c0.9,0,1.7,0.3,2.4,1C303.7,121.5,304,122.4,304,123.3z"/>
			<path class="st1" d="M323.1,119.9v3.3H310v4h10.5v3.3H310v4h13.1v3.3h-16.4v-17.8H323.1z"/>
			<path class="st1" d="M343.4,123.3v4.8c0,0.9-0.3,1.7-1,2.4c-0.7,0.7-1.5,1-2.4,1h-1l4.4,5.3v0.8h-3.6l-5.1-6.1h-5.8h-0.1v6.1
				h-3.3v-17.8H340c1,0,1.8,0.3,2.4,1C343.1,121.6,343.4,122.4,343.4,123.3z M329,128.3H340c0.1,0,0.2-0.1,0.2-0.2v-4.8
				c0-0.1-0.1-0.2-0.2-0.2H329c-0.1,0-0.2,0.1-0.2,0.2v4.8C328.9,128.3,328.9,128.3,329,128.3z"/>
			<path class="st1" d="M356.5,133.7l8-13.9h3.8L358,137.7H355l-10.3-17.8h3.8L356.5,133.7z"/>
			<path class="st1" d="M370.1,137.7v-17.8h3.3v17.8H370.1z"/>
			<path class="st1" d="M393.3,123.1H379c-0.1,0-0.2,0.1-0.2,0.2v10.9c0,0.1,0.1,0.2,0.2,0.2h14.3v3.3H379c-1,0-1.8-0.3-2.4-1
				s-1-1.5-1-2.4v-10.9c0-1,0.3-1.8,1-2.4s1.5-1,2.4-1h14.3V123.1z"/>
			<path class="st1" d="M412.3,119.9v3.3h-13.1v4h10.5v3.3h-10.5v4h13.1v3.3h-16.4v-17.8H412.3z"/>
			<path class="st1" d="M432.5,123.3v1.4h-3.3v-1.4c0-0.1,0-0.2-0.1-0.2h-10.9c-0.1,0-0.2,0.1-0.2,0.2v3.7c0,0.1,0.1,0.2,0.2,0.2
				h10.9c0.9,0,1.7,0.3,2.4,1c0.7,0.7,1,1.5,1,2.4v3.7c0,1-0.3,1.8-1,2.4c-0.7,0.7-1.5,1-2.4,1h-10.9c-1,0-1.8-0.3-2.4-1
				s-1-1.5-1-2.4v-1.4h3.3v1.4c0,0.1,0.1,0.2,0.2,0.2h10.9c0.1,0,0.1-0.1,0.1-0.2v-3.7c0-0.1,0-0.2-0.1-0.2h-10.9
				c-1,0-1.8-0.3-2.4-1s-1-1.5-1-2.4v-3.7c0-1,0.3-1.8,1-2.4s1.5-1,2.4-1h10.9c0.9,0,1.7,0.3,2.4,1
				C432.2,121.5,432.5,122.4,432.5,123.3z"/>
		</g>
	</g>
	<g>
		<g>
			<path class="st2" d="M161.2,93v8.1h-1.6V93h-2.9v-1.5h7.4V93H161.2z"/>
			<path class="st2" d="M173.5,94.6c0,1.6-0.7,2.6-2.1,3l2.5,3.5h-2l-2.3-3.2h-2.1v3.2h-1.6v-9.5h3.6c1.5,0,2.5,0.2,3.1,0.7
				S173.5,93.5,173.5,94.6z M171.3,95.9c0.3-0.3,0.5-0.7,0.5-1.4s-0.2-1.1-0.5-1.3c-0.3-0.2-0.9-0.3-1.8-0.3h-2v3.4h2
				C170.4,96.4,171,96.2,171.3,95.9z"/>
			<path class="st2" d="M177.1,98.9l-1,2.2h-1.7l4.2-9.5h1.7l4.2,9.5h-1.7l-1-2.2H177.1z M181.3,97.4l-1.7-3.9l-1.7,3.9H181.3z"/>
			<path class="st2" d="M189.7,101h-1.8l-3.8-9.5h1.8l2.9,7.1l2.9-7.1h1.8L189.7,101z"/>
			<path class="st2" d="M201.6,91.5V93h-5.1v2.5h4.6V97h-4.6v2.6h5.3v1.5h-6.9v-9.5H201.6z"/>
			<path class="st2" d="M203.9,101v-9.5h1.6v8h4.4v1.5H203.9z"/>
			<path class="st2" d="M214.5,92.7c-0.5,0-0.9,0.1-1.2,0.3c-0.3,0.2-0.5,0.5-0.5,0.9c0,0.4,0.2,0.7,0.5,0.9
				c0.3,0.2,0.9,0.4,1.9,0.7c1,0.2,1.7,0.6,2.2,1c0.5,0.4,0.7,1.1,0.7,1.9c0,0.8-0.3,1.5-0.9,2c-0.6,0.5-1.5,0.8-2.5,0.8
				c-1.5,0-2.8-0.5-4-1.5l1-1.2c1,0.8,2,1.3,3,1.3c0.5,0,0.9-0.1,1.2-0.3c0.3-0.2,0.5-0.5,0.5-0.9c0-0.4-0.1-0.7-0.4-0.9
				c-0.3-0.2-0.8-0.4-1.5-0.6s-1.2-0.3-1.6-0.5s-0.7-0.3-1-0.6c-0.6-0.4-0.8-1.1-0.8-2s0.3-1.6,1-2s1.4-0.7,2.4-0.7
				c0.6,0,1.2,0.1,1.8,0.3c0.6,0.2,1.1,0.5,1.6,0.8l-0.9,1.2c-0.3-0.3-0.7-0.5-1.1-0.6S215,92.7,214.5,92.7z"/>
			<path class="st2" d="M226.5,101.1c-0.9,0-1.7-0.2-2.3-0.7c-0.6-0.5-0.9-1.2-0.9-2c0-1,0.7-1.9,2.2-2.7c-0.4-0.4-0.6-0.8-0.8-1.1
				c-0.2-0.3-0.2-0.6-0.2-1c0-0.7,0.3-1.3,0.8-1.7c0.5-0.4,1.2-0.6,1.9-0.6s1.3,0.2,1.9,0.6c0.5,0.4,0.8,0.9,0.8,1.6
				c0,0.9-0.7,1.8-2.2,2.6c0.7,0.9,1.3,1.6,1.8,2c0.3-0.4,0.5-0.9,0.7-1.5l1.1,0.8c-0.2,0.6-0.5,1.2-0.8,1.7
				c0.4,0.4,0.8,0.8,1.4,1.4l-1,1l-1.3-1.2C228.7,100.8,227.7,101.1,226.5,101.1z M225.3,99.4c0.3,0.3,0.8,0.4,1.4,0.4
				c0.6,0,1.2-0.3,1.8-0.8c-0.9-1-1.6-1.8-2.2-2.4c-1,0.6-1.5,1.2-1.5,1.8C224.8,98.8,225,99.2,225.3,99.4z M227.2,92.5
				c-0.3,0-0.6,0.1-0.8,0.3c-0.2,0.2-0.4,0.4-0.4,0.7s0.1,0.5,0.2,0.7c0.1,0.2,0.3,0.5,0.6,0.9c1-0.5,1.5-1,1.5-1.4
				c0-0.4-0.1-0.6-0.4-0.8C227.8,92.6,227.5,92.5,227.2,92.5z"/>
			<path class="st2" d="M240.8,93v8.1h-1.6V93h-2.9v-1.5h7.4V93H240.8z"/>
			<path class="st2" d="M253.1,99.7c-1,0.9-2.2,1.4-3.6,1.4c-1.4,0-2.6-0.5-3.6-1.4c-1-0.9-1.4-2.1-1.4-3.5s0.5-2.6,1.4-3.5
				c1-0.9,2.2-1.4,3.6-1.4c1.4,0,2.6,0.5,3.6,1.4s1.4,2.1,1.4,3.5S254.1,98.8,253.1,99.7z M252,93.7c-0.7-0.7-1.4-1-2.4-1
				s-1.7,0.3-2.4,1c-0.7,0.7-1,1.5-1,2.5c0,1,0.3,1.8,1,2.5c0.7,0.7,1.5,1,2.4,1s1.7-0.3,2.4-1c0.7-0.7,1-1.5,1-2.5
				C252.9,95.2,252.6,94.4,252,93.7z"/>
			<path class="st2" d="M258.8,98.9c0.4,0.5,1,0.8,1.8,0.8c0.7,0,1.3-0.3,1.8-0.8c0.4-0.5,0.7-1.2,0.7-2.1v-5.3h1.6v5.4
				c0,1.4-0.4,2.4-1.1,3.2c-0.8,0.7-1.7,1.1-2.9,1.1s-2.2-0.4-2.9-1.1c-0.8-0.7-1.1-1.8-1.1-3.2v-5.4h1.6v5.3
				C258.1,97.6,258.3,98.3,258.8,98.9z"/>
			<path class="st2" d="M274.7,94.6c0,1.6-0.7,2.6-2.1,3l2.5,3.5h-2l-2.3-3.2h-2.1v3.2h-1.6v-9.5h3.6c1.5,0,2.5,0.2,3.1,0.7
				C274.4,92.7,274.7,93.5,274.7,94.6z M272.6,95.9c0.3-0.3,0.5-0.7,0.5-1.4s-0.2-1.1-0.5-1.3c-0.3-0.2-0.9-0.3-1.8-0.3h-2v3.4h2
				C271.6,96.4,272.3,96.2,272.6,95.9z"/>
			<path class="st2" d="M279.9,92.7c-0.5,0-0.9,0.1-1.2,0.3c-0.3,0.2-0.5,0.5-0.5,0.9c0,0.4,0.2,0.7,0.5,0.9
				c0.3,0.2,0.9,0.4,1.9,0.7c1,0.2,1.7,0.6,2.2,1c0.5,0.4,0.7,1.1,0.7,1.9c0,0.8-0.3,1.5-0.9,2c-0.6,0.5-1.5,0.8-2.5,0.8
				c-1.5,0-2.8-0.5-4-1.5l1-1.2c1,0.8,2,1.3,3,1.3c0.5,0,0.9-0.1,1.2-0.3c0.3-0.2,0.5-0.5,0.5-0.9c0-0.4-0.1-0.7-0.4-0.9
				c-0.3-0.2-0.8-0.4-1.5-0.6s-1.2-0.3-1.6-0.5s-0.7-0.3-1-0.6c-0.6-0.4-0.8-1.1-0.8-2s0.3-1.6,1-2s1.4-0.7,2.4-0.7
				c0.6,0,1.2,0.1,1.8,0.3c0.6,0.2,1.1,0.5,1.6,0.8l-0.9,1.2c-0.3-0.3-0.7-0.5-1.1-0.6S280.4,92.7,279.9,92.7z"/>
			<path class="st2" d="M290.8,93.5c-0.4,1.1-0.5,2.2-0.5,3.3c0,1,0.2,2.1,0.5,3.3s0.8,2.1,1.3,2.8h-1.6c-0.4-0.6-0.9-1.5-1.2-2.6
				c-0.4-1.1-0.6-2.3-0.6-3.4s0.2-2.3,0.6-3.4c0.4-1.1,0.8-2,1.2-2.6h1.6C291.6,91.4,291.2,92.4,290.8,93.5z"/>
			<path class="st2" d="M300.4,92.3c0.7,0.6,1,1.4,1,2.6s-0.3,2-1,2.5c-0.7,0.5-1.7,0.8-3.1,0.8h-1.7v2.8h-1.6v-9.5h3.3
				C298.7,91.5,299.7,91.8,300.4,92.3z M299.2,96.3c0.3-0.3,0.5-0.8,0.5-1.5c0-0.7-0.2-1.1-0.6-1.4c-0.4-0.3-1.1-0.4-1.9-0.4h-1.6
				v3.8h1.9C298.3,96.8,298.9,96.6,299.2,96.3z"/>
			<path class="st2" d="M307.6,101h-1.8l-3.8-9.5h1.8l2.9,7.1l2.9-7.1h1.8L307.6,101z"/>
			<path class="st2" d="M316.4,93v8.1h-1.6V93h-2.9v-1.5h7.4V93H316.4z"/>
			<path class="st2" d="M321.6,100c0.4-1.1,0.5-2.2,0.5-3.3c0-1-0.2-2.1-0.5-3.3s-0.8-2.1-1.3-2.8h1.6c0.4,0.6,0.9,1.5,1.2,2.6
				c0.4,1.1,0.6,2.3,0.6,3.4s-0.2,2.3-0.6,3.4c-0.4,1.1-0.8,2-1.2,2.6h-1.6C320.7,102.1,321.2,101.2,321.6,100z"/>
			<path class="st2" d="M329.4,101v-9.5h1.6v8h4.4v1.5H329.4z"/>
			<path class="st2" d="M339.7,93v8.1h-1.6V93h-2.9v-1.5h7.4V93H339.7z"/>
			<path class="st2" d="M351.6,92.7c0.9,0.8,1.4,2,1.4,3.5c0,1.5-0.4,2.7-1.3,3.5s-2.3,1.3-4.1,1.3h-3.2v-9.5h3.3
				C349.4,91.5,350.7,91.9,351.6,92.7z M351.3,96.3c0-2.2-1.3-3.3-3.8-3.3H346v6.5h1.8c1.2,0,2-0.3,2.7-0.8
				C351,98.1,351.3,97.3,351.3,96.3z"/>
			<path class="st2" d="M354.9,100.8c-0.2-0.2-0.3-0.4-0.3-0.7s0.1-0.5,0.3-0.7c0.2-0.2,0.4-0.3,0.7-0.3s0.5,0.1,0.7,0.3
				c0.2,0.2,0.3,0.4,0.3,0.7s-0.1,0.5-0.3,0.7s-0.4,0.3-0.7,0.3S355.1,101,354.9,100.8z"/>
		</g>
	</g>
	<rect x="52.4" y="111.8" class="st3" width="381.4" height="1.4"/>
</g>
</svg>
