<?xml version="1.0" encoding="utf-8"?>
<!-- Generator: Adobe Illustrator 23.0.2, SVG Export Plug-In . SVG Version: 6.00 Build 0)  -->
<svg version="1.1" id="Layer_1" xmlns="http://www.w3.org/2000/svg" xmlns:xlink="http://www.w3.org/1999/xlink" x="0px" y="0px"
	 viewBox="0 0 218 228.1" style="enable-background:new 0 0 218 228.1;" xml:space="preserve">
<style type="text/css">
	.st0{fill:#51B848;}
	.st1{fill:#2B7439;}
</style>
<g>
	<path class="st0" d="M109,176.3c-41.6,0-76.1-31.4-83-72.6c-0.8,4.9-1.2,9.9-1.2,15c0,48.4,37.7,87.5,84.2,87.5
		c46.5,0,84.2-39.2,84.2-87.5c0-5.1-0.4-10.1-1.2-15C185.1,144.9,150.6,176.3,109,176.3z"/>
	<g>
		<g>
			<path class="st1" d="M100.2,90.6c-3.9-0.4-7.7-0.9-11.5-1.1c-1.2-0.1-2.5,0.4-3.7,0.9c-0.3,0.1-0.4,0.9-0.6,1.4
				c-0.2,0.5-0.5,1-0.7,1.5c-0.3-0.5-0.5-1-0.8-1.5c-0.1-0.1-0.1-0.3-0.2-0.6c-1.3,0.4-2.5,0.8-3.8,1.1c-2.3,0.7-4.6,1.4-6.9,2.1
				c-0.4,0.1-1,0.3-1,0.6c-0.4,2.2-2,1.6-3.2,1.6c-0.5,0.7-0.9,1.4-1.4,2.1c-0.3-0.7-0.6-1.3-1-2.2c-5.2,1.9-11.1,2.7-16.1,6.1
				c0-0.4-0.1-0.7-0.1-0.9c0.8-2.5,1.4-5.2,2.4-7.6c0.4-1,1.4-2.1,2.4-2.6c3.4-1.8,6.9-3.5,10.4-5.1c0.9-0.4,1.2-0.9,1.1-1.8
				c-0.1-1.2,0-2.5,0-3.7c0-1.4,0.7-2,2-2c0.8,0,1.6,0,2.4,0c2.1,0,2.3,0.3,2.4,2.4c0,0.3,0,0.7,0.1,1.2c2.6-1.2,5.1-2.4,7.5-3.7
				c0.3-0.1,0.4-0.7,0.5-1.1c0.1-1.2,0-2.5,0-3.7c0-1.6,0.4-2,2.1-2c0.4,0,0.9,0,1.3,0c3.2,0,3.2,0,3.6,3.2c1.4-0.6,2.7-1.3,4-1.9
				c2.5-1.2,5-2.5,7.6-3.7c1.1-0.5,1.4-1.1,1.4-2.2c0-8.8-0.2-17.7,0.1-26.5c0.2-5.6,2-10.9,4.7-15.9c0,0,0-0.1,0.1-0.1
				c2.3-3.8,5.1-3.9,7.3,0c3.1,5.6,4.8,11.7,5,18.2c0.2,8.2,0.1,16.3,0,24.5c0,1.1,0.3,1.6,1.3,2.1c3.8,1.8,7.6,3.6,11.4,5.5
				c0.1-0.1,0.2-0.2,0.2-0.2c0.3-2.9,0.3-2.9,3.3-2.9c3.6,0,3.8,0,3.6,3.6c-0.1,2.2,0.4,3.5,2.6,4.2c1.8,0.6,3.5,1.6,5.2,2.5
				c0.1-0.2,0.2-0.2,0.2-0.3c0.2-3.2,0.2-3.2,3.4-3.2c3.4,0,3.7,0.1,3.4,3.4c-0.2,2.8,0.7,4.2,3.2,5.2c2.7,1,5.1,2.5,7.7,3.7
				c1.8,0.8,2.9,2,3.4,3.9c0.7,2.5,1.5,4.9,2.1,7c-5.4-1.9-10.8-3.9-16.2-5.8c-0.6,1-1,1.6-1.4,2.3c-0.3-0.6-0.7-1.3-1.1-2
				c-0.4,0-1,0-1.5,0c-0.9,0-1.5-0.3-1.7-1.3c-0.1-0.3-0.4-0.7-0.7-0.8c-3.7-1.2-7.3-2.3-11.1-3.5c-0.1,0.6-0.1,1.1-0.3,1.5
				c-0.1,0.3-0.4,0.5-0.6,0.7c-0.3-0.2-0.6-0.4-0.7-0.7c-0.2-0.7-0.1-1.9-0.5-2.1c-1.3-0.5-2.7-0.8-4.1-0.9
				c-0.9-0.1-1.8,0.1-2.7,0.2c-2.5,0.3-5,0.6-7.5,0.8c-1,0.1-1.2,0.5-1.2,1.3c-0.1,4.4-0.2,8.9-0.3,13.3c-0.1,6.6-0.9,13-2.1,19.4
				c-0.2,0.9,0,1.4,0.8,1.8c2.5,1.5,4.8,3,7.3,4.5c0.8,0.4,1.1,0.9,1,1.8c-0.1,1.8,0,3.5,0,5.5c-2.6-0.6-5-1.1-7.4-1.7
				c-0.7-0.2-1.6-0.2-2.2-0.5c-1.4-0.8-2.4,0.3-3.5,0.6c-0.2,0-0.3,0.7-0.4,1.1c-0.5,1.9-0.9,3.8-1.3,5.7c-0.1,0-0.3,0-0.4,0
				c-0.6-2.2-1.1-4.4-1.7-6.6c-2.3-1.8-4.7-0.3-7.1,0.1c-2,0.4-3.9,0.9-6.1,1.4c0-2.2,0-4.2,0-6.2c0-0.3,0.5-0.8,0.9-1
				c2.5-1.6,4.9-3.1,7.4-4.6c0.7-0.4,1-0.9,0.8-1.7c-2.2-10.2-2.5-20.5-2.6-30.9c0-0.9,0-1.8-0.1-2.7
				C100.3,90.9,100.3,90.8,100.2,90.6z"/>
			<path class="st1" d="M164.4,135.5c-0.4-11.4-0.8-22.8-1.2-34.3c2.6,0.9,2.6,0.9,2.5,3.4c-0.3,7-0.5,14-0.7,21
				c-0.1,3.3,0,6.6,0,9.9C164.8,135.5,164.6,135.5,164.4,135.5z"/>
			<path class="st1" d="M52.9,134.9c0-3.2,0.1-6.5,0-9.7c-0.2-7.2-0.4-14.4-0.7-21.6c-0.1-1.9,1.4-1.6,2.5-2.7
				c-0.4,11.6-0.8,22.8-1.2,34C53.3,134.8,53.1,134.8,52.9,134.9z"/>
			<path class="st1" d="M75.6,94.8c-0.3,10.5-0.7,20.9-1,31.2c-0.1,0-0.2,0-0.2,0c-0.1-1.2-0.2-2.3-0.2-3.5
				c-0.3-8.4-0.6-16.9-0.9-25.3C73.2,95.1,73.2,95.1,75.6,94.8z"/>
			<path class="st1" d="M142.3,94.7c2.3,0.4,2.4,0.4,2.3,2.5c-0.3,9.8-0.7,19.5-1.2,29.3C143,116,142.7,105.4,142.3,94.7z"/>
		</g>
	</g>
</g>
</svg>
